<svg width="33" height="32" viewBox="0 0 33 32" fill="none" xmlns="http://www.w3.org/2000/svg">
<path d="M16.5 22.3066C17.8929 22.3066 19.0702 21.8261 20.032 20.8653C20.9938 19.9044 21.4747 18.727 21.4747 17.3333C21.4747 15.9395 20.9938 14.7621 20.032 13.8013C19.0702 12.8404 17.8929 12.3595 16.5 12.3586C15.1071 12.3577 13.9298 12.8386 12.968 13.8013C12.0062 14.7639 11.5253 15.9413 11.5253 17.3333C11.5253 18.7253 12.0062 19.9026 12.968 20.8653C13.9298 21.8279 15.1071 22.3088 16.5 22.3079M16.5 20.9746C15.4644 20.9746 14.5987 20.6266 13.9027 19.9306C13.2067 19.2346 12.8587 18.3688 12.8587 17.3333C12.8587 16.2977 13.2067 15.4319 13.9027 14.7359C14.5987 14.0399 15.4644 13.6919 16.5 13.6919C17.5356 13.6919 18.4013 14.0399 19.0973 14.7359C19.7933 15.4319 20.1413 16.2977 20.1413 17.3333C20.1413 18.3688 19.7933 19.2346 19.0973 19.9306C18.4013 20.6266 17.5356 20.9746 16.5 20.9746ZM6.65467 26.6666C6.04044 26.6666 5.528 26.4613 5.11733 26.0506C4.70667 25.6399 4.50089 25.127 4.5 24.5119V10.1546C4.5 9.54036 4.70578 9.02792 5.11733 8.61725C5.52889 8.20659 6.04089 8.00081 6.65333 7.99992H10.5973L13.064 5.33325H19.936L22.4027 7.99992H26.3467C26.96 7.99992 27.472 8.2057 27.8827 8.61725C28.2933 9.02881 28.4991 9.54125 28.5 10.1546V24.5133C28.5 25.1266 28.2942 25.639 27.8827 26.0506C27.4711 26.4621 26.9591 26.6675 26.3467 26.6666H6.65467ZM6.65467 25.3333H26.3467C26.5858 25.3333 26.7822 25.2564 26.936 25.1026C27.0898 24.9488 27.1667 24.7524 27.1667 24.5133V10.1533C27.1667 9.91414 27.0898 9.7177 26.936 9.56392C26.7822 9.41014 26.5858 9.33325 26.3467 9.33325H21.8173L19.3587 6.66659H13.6413L11.1827 9.33325H6.65333C6.41422 9.33325 6.21778 9.41014 6.064 9.56392C5.91022 9.7177 5.83333 9.91459 5.83333 10.1546V24.5133C5.83333 24.7524 5.91022 24.9488 6.064 25.1026C6.21778 25.2564 6.41467 25.3333 6.65467 25.3333Z" fill="#FFA902"/>
</svg>
