<svg width="24" height="25" viewBox="0 0 24 25" fill="none" xmlns="http://www.w3.org/2000/svg">
<path fill-rule="evenodd" clip-rule="evenodd" d="M3.47032 13.0301C3.32987 12.8895 3.25098 12.6988 3.25098 12.5001C3.25098 12.3013 3.32987 12.1107 3.47032 11.9701L9.47032 5.97009C9.53898 5.8964 9.62178 5.8373 9.71378 5.79631C9.80578 5.75532 9.90509 5.73328 10.0058 5.7315C10.1065 5.72972 10.2065 5.74825 10.2999 5.78597C10.3933 5.82369 10.4781 5.87983 10.5494 5.95105C10.6206 6.02227 10.6767 6.10711 10.7144 6.20049C10.7522 6.29388 10.7707 6.39391 10.7689 6.49461C10.7671 6.59532 10.7451 6.69463 10.7041 6.78663C10.6631 6.87863 10.604 6.96143 10.5303 7.03009L5.81032 11.7501H20.0003C20.1992 11.7501 20.39 11.8291 20.5306 11.9698C20.6713 12.1104 20.7503 12.3012 20.7503 12.5001C20.7503 12.699 20.6713 12.8898 20.5306 13.0304C20.39 13.1711 20.1992 13.2501 20.0003 13.2501H5.81032L10.5303 17.9701C10.604 18.0388 10.6631 18.1216 10.7041 18.2136C10.7451 18.3056 10.7671 18.4049 10.7689 18.5056C10.7707 18.6063 10.7522 18.7063 10.7144 18.7997C10.6767 18.8931 10.6206 18.9779 10.5494 19.0491C10.4781 19.1203 10.3933 19.1765 10.2999 19.2142C10.2065 19.2519 10.1065 19.2705 10.0058 19.2687C9.90509 19.2669 9.80578 19.2449 9.71378 19.2039C9.62178 19.1629 9.53898 19.1038 9.47032 19.0301L3.47032 13.0301Z" fill="#FFA902"/>
</svg>
