<svg width="42" height="30" viewBox="0 0 42 30" fill="none" xmlns="http://www.w3.org/2000/svg">
<path d="M41.5 25.5H1" stroke="white" stroke-linecap="round"/>
<path d="M31.5 29.5H1.5" stroke="white" stroke-linecap="round"/>
<path fill-rule="evenodd" clip-rule="evenodd" d="M29.6633 1.26893L29 0C28.8616 0.467337 28.7241 0.923333 28.5871 1.36877C27.1769 5.95537 25.8239 9.42232 24.0856 12.622L19.7769 5.15908L19.1077 4C18.9657 4.43397 18.8248 4.85599 18.6845 5.26699C16.3394 12.1356 14.1519 15.9269 9.62277 21C9.3303 21.3276 9.02806 21.6605 8.71539 22H10.0689H17.5H18.7981H28.3453H29.5H39.3716H40.5L39.9773 21L29.6633 1.26893ZM27.7679 21H19.6083C21.3866 18.7736 22.8389 16.7314 24.0913 14.6319L27.7679 21ZM24.6695 13.6333L28.9226 21H38.8489L29.2431 2.62361C27.8404 7.05074 26.4574 10.4492 24.6695 13.6333ZM23.5166 13.6364C22.1099 16.0657 20.4466 18.3902 18.3239 21H10.9563C12.9517 18.7097 14.499 16.6257 15.8185 14.3417C17.1606 12.0187 18.2524 9.51391 19.3457 6.41227L23.5166 13.6364Z" fill="white"/>
</svg>
