<svg xmlns="http://www.w3.org/2000/svg">
    <symbol id="arrow" viewBox="0 0 24 24">
        <path fill-rule="evenodd" clip-rule="evenodd" d="M3.47032 13.0301C3.32987 12.8895 3.25098 12.6988 3.25098 12.5001C3.25098 12.3013 3.32987 12.1107 3.47032 11.9701L9.47032 5.97009C9.53898 5.8964 9.62178 5.8373 9.71378 5.79631C9.80578 5.75532 9.90509 5.73328 10.0058 5.7315C10.1065 5.72972 10.2065 5.74825 10.2999 5.78597C10.3933 5.82369 10.4781 5.87983 10.5494 5.95105C10.6206 6.02227 10.6767 6.10711 10.7144 6.20049C10.7522 6.29388 10.7707 6.39391 10.7689 6.49461C10.7671 6.59532 10.7451 6.69463 10.7041 6.78663C10.6631 6.87863 10.604 6.96143 10.5303 7.03009L5.81032 11.7501H20.0003C20.1992 11.7501 20.39 11.8291 20.5306 11.9698C20.6713 12.1104 20.7503 12.3012 20.7503 12.5001C20.7503 12.699 20.6713 12.8898 20.5306 13.0304C20.39 13.1711 20.1992 13.2501 20.0003 13.2501H5.81032L10.5303 17.9701C10.604 18.0388 10.6631 18.1216 10.7041 18.2136C10.7451 18.3056 10.7671 18.4049 10.7689 18.5056C10.7707 18.6063 10.7522 18.7063 10.7144 18.7997C10.6767 18.8931 10.6206 18.9779 10.5494 19.0491C10.4781 19.1203 10.3933 19.1765 10.2999 19.2142C10.2065 19.2519 10.1065 19.2705 10.0058 19.2687C9.90509 19.2669 9.80578 19.2449 9.71378 19.2039C9.62178 19.1629 9.53898 19.1038 9.47032 19.0301L3.47032 13.0301Z" fill="currentColor"/>
    </symbol>
    <symbol id="close" viewBox="0 0 21 24">
        <path d="M6.45007 18.3079L5.82324 17.5999L10.7812 11.9999L5.82324 6.39989L6.45007 5.69189L11.408 11.2919L16.366 5.69189L16.9928 6.39989L12.0349 11.9999L16.9928 17.5999L16.366 18.3079L11.408 12.7079L6.45007 18.3079Z" fill="currentColor"/>
    </symbol>
    <symbol id="edit" viewBox="0 0 32 32">
        <path d="M2 26H30V28H2V26ZM25.4 9C26.2 8.2 26.2 7 25.4 6.2L21.8 2.6C21 1.8 19.8 1.8 19 2.6L4 17.6V24H10.4L25.4 9ZM20.4 4L24 7.6L21 10.6L17.4 7L20.4 4ZM6 22V18.4L16 8.4L19.6 12L9.6 22H6Z" fill="currentColor"/>
    </symbol>
    <symbol id="photo" viewBox="0 0 32 32">
        <path d="M16.5 22.3066C17.8929 22.3066 19.0702 21.8261 20.032 20.8653C20.9938 19.9044 21.4747 18.727 21.4747 17.3333C21.4747 15.9395 20.9938 14.7621 20.032 13.8013C19.0702 12.8404 17.8929 12.3595 16.5 12.3586C15.1071 12.3577 13.9298 12.8386 12.968 13.8013C12.0062 14.7639 11.5253 15.9413 11.5253 17.3333C11.5253 18.7253 12.0062 19.9026 12.968 20.8653C13.9298 21.8279 15.1071 22.3088 16.5 22.3079M16.5 20.9746C15.4644 20.9746 14.5987 20.6266 13.9027 19.9306C13.2067 19.2346 12.8587 18.3688 12.8587 17.3333C12.8587 16.2977 13.2067 15.4319 13.9027 14.7359C14.5987 14.0399 15.4644 13.6919 16.5 13.6919C17.5356 13.6919 18.4013 14.0399 19.0973 14.7359C19.7933 15.4319 20.1413 16.2977 20.1413 17.3333C20.1413 18.3688 19.7933 19.2346 19.0973 19.9306C18.4013 20.6266 17.5356 20.9746 16.5 20.9746ZM6.65467 26.6666C6.04044 26.6666 5.528 26.4613 5.11733 26.0506C4.70667 25.6399 4.50089 25.127 4.5 24.5119V10.1546C4.5 9.54036 4.70578 9.02792 5.11733 8.61725C5.52889 8.20659 6.04089 8.00081 6.65333 7.99992H10.5973L13.064 5.33325H19.936L22.4027 7.99992H26.3467C26.96 7.99992 27.472 8.2057 27.8827 8.61725C28.2933 9.02881 28.4991 9.54125 28.5 10.1546V24.5133C28.5 25.1266 28.2942 25.639 27.8827 26.0506C27.4711 26.4621 26.9591 26.6675 26.3467 26.6666H6.65467ZM6.65467 25.3333H26.3467C26.5858 25.3333 26.7822 25.2564 26.936 25.1026C27.0898 24.9488 27.1667 24.7524 27.1667 24.5133V10.1533C27.1667 9.91414 27.0898 9.7177 26.936 9.56392C26.7822 9.41014 26.5858 9.33325 26.3467 9.33325H21.8173L19.3587 6.66659H13.6413L11.1827 9.33325H6.65333C6.41422 9.33325 6.21778 9.41014 6.064 9.56392C5.91022 9.7177 5.83333 9.91459 5.83333 10.1546V24.5133C5.83333 24.7524 5.91022 24.9488 6.064 25.1026C6.21778 25.2564 6.41467 25.3333 6.65467 25.3333Z" fill="currentColor"/>
    </symbol>
    <symbol id="triangle" viewBox="0 0 12 8">
        <path d="M5.19416 7.40334C5.59376 7.94716 6.40624 7.94716 6.80584 7.40334L10.8923 1.84214C11.3775 1.18172 10.906 0.25 10.0864 0.25H1.91358C1.09404 0.25 0.622459 1.18172 1.10774 1.84214L5.19416 7.40334Z" fill="currentColor"/>
    </symbol>
    <symbol id="upload" viewBox="0 0 14 14">
        <path d="M5.25 3.96881H6.40469V9.25475C6.40469 9.3235 6.46094 9.37975 6.52969 9.37975H7.46719C7.53594 9.37975 7.59219 9.3235 7.59219 9.25475V3.96881H8.75C8.85469 3.96881 8.9125 3.8485 8.84844 3.76725L7.09844 1.55162C7.08674 1.53668 7.0718 1.5246 7.05475 1.51629C7.03769 1.50798 7.01897 1.50366 7 1.50366C6.98103 1.50366 6.96231 1.50798 6.94525 1.51629C6.92819 1.5246 6.91326 1.53668 6.90156 1.55162L5.15156 3.76569C5.0875 3.8485 5.14531 3.96881 5.25 3.96881ZM12.7188 8.786H11.7812C11.7125 8.786 11.6562 8.84225 11.6562 8.911V11.3172H2.34375V8.911C2.34375 8.84225 2.2875 8.786 2.21875 8.786H1.28125C1.2125 8.786 1.15625 8.84225 1.15625 8.911V12.0047C1.15625 12.2813 1.37969 12.5047 1.65625 12.5047H12.3438C12.6203 12.5047 12.8438 12.2813 12.8438 12.0047V8.911C12.8438 8.84225 12.7875 8.786 12.7188 8.786Z" fill="currentColor" />
    </symbol>
    <symbol id="star" viewBox="0 0 7 6">
        <path d="M6.594 2.4C6.594 2.19 6.51 2.008 6.342 1.868C6.174 1.728 5.978 1.644 5.768 1.644C5.488 1.644 5.124 1.854 4.69 2.26C4.382 2.554 4.046 2.778 3.696 2.918C3.724 2.526 3.836 2.148 4.004 1.784C4.2 1.35 4.312 1.042 4.312 0.859999C4.312 0.622 4.228 0.411999 4.088 0.244C3.92 0.0759994 3.724 -0.00800037 3.5 -0.00800037C3.262 -0.00800037 3.066 0.0759994 2.912 0.244C2.758 0.411999 2.688 0.622 2.688 0.859999C2.688 1.042 2.786 1.35 2.996 1.784C3.164 2.148 3.262 2.526 3.304 2.918C2.94 2.778 2.618 2.554 2.31 2.26C1.862 1.854 1.512 1.644 1.232 1.644C1.008 1.644 0.826 1.728 0.658 1.868C0.49 2.008 0.406 2.19 0.406 2.4C0.406 2.68 0.504 2.89 0.7 3.044C0.896 3.212 1.134 3.282 1.414 3.282C1.484 3.282 1.652 3.268 1.904 3.24C2.156 3.212 2.352 3.198 2.478 3.198C2.688 3.198 2.926 3.226 3.178 3.268C2.954 3.52 2.632 3.772 2.24 3.996C1.904 4.192 1.694 4.332 1.582 4.43C1.386 4.626 1.288 4.864 1.288 5.116C1.288 5.34 1.358 5.536 1.512 5.676C1.666 5.844 1.862 5.914 2.086 5.914C2.576 5.914 2.912 5.48 3.08 4.612C3.164 4.164 3.304 3.786 3.5 3.492C3.682 3.786 3.822 4.164 3.92 4.612C4.088 5.48 4.41 5.914 4.914 5.914C5.138 5.914 5.32 5.844 5.488 5.676C5.628 5.536 5.712 5.34 5.712 5.116C5.712 4.864 5.614 4.626 5.418 4.43C5.306 4.332 5.082 4.192 4.76 3.996C4.354 3.772 4.046 3.52 3.822 3.268C4.074 3.226 4.298 3.198 4.522 3.198C4.634 3.198 4.83 3.212 5.096 3.24C5.348 3.268 5.502 3.282 5.586 3.282C5.852 3.282 6.09 3.212 6.3 3.044C6.496 2.89 6.594 2.68 6.594 2.4Z" fill="currentColor"/>
    </symbol>
</svg>